<?xml version="1.0" encoding="utf-8"?>
<!-- Generator: Adobe Illustrator 16.0.0, SVG Export Plug-In . SVG Version: 6.00 Build 0)  -->
<!DOCTYPE svg PUBLIC "-//W3C//DTD SVG 1.1//EN" "http://www.w3.org/Graphics/SVG/1.1/DTD/svg11.dtd">
<svg version="1.1" id="Layer_1" xmlns="http://www.w3.org/2000/svg" xmlns:xlink="http://www.w3.org/1999/xlink" x="0px" y="0px"
	 width="512px" height="512px" viewBox="0 0 512 512" enable-background="new 0 0 512 512" xml:space="preserve">
<g>
	<path fill="#2E5E86" d="M256.23,512C396.81,512,512,396.81,512,256.23C512,115.184,396.81,0,256.23,0C115.184,0,0,115.184,0,256.23
		C0,396.81,115.184,512,256.23,512L256.23,512z"/>
	<path fill="#FFFFFF" d="M336.034,175.958v-48.073h48.073v48.073H336.034z M329.238,224.023h54.869v144.211
		c0,8.624-7.25,15.873-15.873,15.873H143.758c-8.616,0-15.874-7.249-15.874-15.873V224.023h54.869
		c-4.53,9.976-6.796,20.412-6.796,32.207c0,43.979,35.824,79.804,80.272,79.804c43.979,0,79.804-35.824,79.804-79.804
		C336.034,244.435,333.77,233.999,329.238,224.023L329.238,224.023z M416.308,127.885c0-17.686-14.515-31.746-32.2-31.746H127.885
		c-17.686,0-31.746,14.061-31.746,31.746v256.224c0,17.686,14.061,32.199,31.746,32.199h256.223c17.687,0,32.2-14.515,32.2-32.199
		V127.885z M256.23,208.15c26.293,0,47.604,21.318,47.604,48.081c0,26.294-21.311,47.604-47.604,47.604
		c-26.763,0-48.081-21.312-48.081-47.604C208.15,229.468,229.468,208.15,256.23,208.15L256.23,208.15z"/>
</g>
</svg>
